<svg width="37" height="37" viewBox="0 0 37 37" fill="none" xmlns="http://www.w3.org/2000/svg">
<circle cx="18.5" cy="18.5" r="18.5" fill="#2400FF"/>
<path d="M26.9642 11.6857C27.0385 11.5 26.995 11.2879 26.8536 11.1465C26.7121 11.005 26.5 10.9615 26.3143 11.0358L11.7672 16.8546L11.7657 16.8552L11.3143 17.0358C11.1401 17.1054 11.0196 17.2667 11.0022 17.4535C10.9847 17.6403 11.0733 17.8211 11.2316 17.9218L11.6412 18.1825L11.6431 18.1837L16.6378 21.3622L19.8163 26.3569L19.8178 26.3593L20.0782 26.7685C20.1789 26.9267 20.3597 27.0153 20.5465 26.9978C20.7333 26.9804 20.8946 26.8599 20.9642 26.6857L26.9642 11.6857ZM25.1311 13.576L17.6372 21.0699L17.4218 20.7316C17.3825 20.6698 17.3302 20.6175 17.2684 20.5782L16.9301 20.3628L24.4239 12.869L25.6025 12.3975L25.1311 13.576Z" fill="white"/>
</svg>
