<svg width="48" height="48" viewBox="0 0 48 48" fill="none" xmlns="http://www.w3.org/2000/svg">
<path d="M0 23.28C0 9.90336 10.4801 0 24 0C37.5199 0 48 9.90336 48 23.28C48 36.6566 37.5199 46.56 24 46.56C21.5716 46.56 19.2418 46.2394 17.0527 45.6374C16.6272 45.5203 16.1747 45.5534 15.7709 45.7315L11.0072 47.8344C9.76114 48.3845 8.35454 47.4984 8.31278 46.1366L8.18208 41.8675C8.166 41.3414 7.92936 40.8499 7.53734 40.499C2.86752 36.3229 0 30.2769 0 23.28ZM16.6381 18.9033L9.58811 30.0883C8.91156 31.1616 10.231 32.3713 11.2417 31.6043L18.8146 25.857C19.3268 25.4682 20.0347 25.4661 20.5492 25.8519L26.1565 30.0575C27.8391 31.3195 30.2405 30.8763 31.362 29.0971L38.412 17.912C39.0884 16.8386 37.7691 15.629 36.7583 16.396L29.1855 22.1433C28.6732 22.5321 27.9653 22.5342 27.4508 22.1483L21.8436 17.9428C20.161 16.6809 17.7595 17.124 16.6381 18.9033Z" fill="white"/>
</svg>
