<svg width="37" height="37" viewBox="0 0 37 37" fill="none" xmlns="http://www.w3.org/2000/svg">
<circle cx="18.5" cy="18.5" r="18.5" fill="#2400FF"/>
<path d="M27 19C27 22.866 23.4183 26 19 26C18.1832 26 17.3951 25.8929 16.6528 25.6939C16.069 25.9897 14.7277 26.5584 12.4717 26.9277C12.2727 26.9603 12.1204 26.7521 12.199 26.5664C12.5531 25.7299 12.8725 24.6162 12.9698 23.6001C11.7431 22.3699 11 20.7609 11 19C11 15.134 14.5817 12 19 12C23.4183 12 27 15.134 27 19ZM16 19C16 18.4477 15.5523 18 15 18C14.4477 18 14 18.4477 14 19C14 19.5523 14.4477 20 15 20C15.5523 20 16 19.5523 16 19ZM20 19C20 18.4477 19.5523 18 19 18C18.4477 18 18 18.4477 18 19C18 19.5523 18.4477 20 19 20C19.5523 20 20 19.5523 20 19ZM23 20C23.5523 20 24 19.5523 24 19C24 18.4477 23.5523 18 23 18C22.4477 18 22 18.4477 22 19C22 19.5523 22.4477 20 23 20Z" fill="white"/>
</svg>
