<svg width="37" height="37" viewBox="0 0 37 37" fill="none" xmlns="http://www.w3.org/2000/svg">
<circle cx="18.5" cy="18.5" r="18.5" fill="#2400FF"/>
<path fill-rule="evenodd" clip-rule="evenodd" d="M12.8848 11.5111C13.6269 10.769 14.8515 10.8452 15.4958 11.6736L17.2895 13.9798C17.6187 14.403 17.735 14.9541 17.605 15.4742L17.0577 17.6633C16.9999 17.8944 17.0677 18.1389 17.2361 18.3073L19.6927 20.7639C19.8611 20.9323 20.1056 21.0001 20.3367 20.9423L22.5258 20.395C23.0459 20.265 23.597 20.3813 24.0202 20.7105L26.3264 22.5042C27.1548 23.1485 27.231 24.3731 26.4889 25.1152L25.455 26.1492C24.7153 26.8889 23.6089 27.2137 22.5778 26.8512C20.0175 25.9511 17.6144 24.4774 15.5685 22.4315C13.5226 20.3856 12.0489 17.9825 11.1488 15.4222C10.7863 14.3911 11.1111 13.2847 11.8508 12.545L12.8848 11.5111Z" fill="white"/>
</svg>
